<?xml version="1.0" encoding="utf-8"?>
<!-- Generator: Adobe Illustrator 26.0.0, SVG Export Plug-In . SVG Version: 6.00 Build 0)  -->
<svg version="1.1" id="Layer_1" xmlns="http://www.w3.org/2000/svg" xmlns:xlink="http://www.w3.org/1999/xlink" x="0px" y="0px"
	 viewBox="0 0 389.57 371.3" style="enable-background:new 0 0 389.57 371.3;" xml:space="preserve">
<style type="text/css">
	.st0{fill:#090909;}
	.st1{fill:#F7F6F6;}
	.st2{fill:#0C0D0F;}
	.st3{fill:#603716;}
	.st4{fill:#E5DCCB;}
	.st5{fill:#925C25;}
	.st6{fill:#875021;}
	.st7{fill:#1F1C19;}
	.st8{fill:#EFD749;}
	.st9{fill:#7C451D;}
	.st10{fill:#E2B428;}
	.st11{fill:#D8C799;}
	.st12{fill:#2D2E2F;}
	.st13{fill:#F9DD10;}
	.st14{fill:#B0772A;}
</style>
<g>
	<path class="st0" d="M17.51,9.71c17.97,21.96,41.71,29.4,67.73,32.27c17.7,1.95,34.13-2.05,50.47-8.51
		c18.99-7.5,39-10.99,59.39-11.14c21.53-0.16,42.26,4.82,62.1,12.87c32.65,13.25,63.4,7.35,93.29-8.26
		c7.68-4.01,14.06-9.91,19.61-17.56c3.65,23.28,1.23,44.34-13.98,62.49c-3.23,3.85-7.01,7.19-11.34,9.67
		c-2.82,1.62-2.88,2.8-1.06,5.24c11.07,14.85,20.39,30.71,27.08,48.03c10.91,28.26,15.97,57.32,12.64,87.68
		c-3.21,29.3-16.12,54.15-34.52,76.49c-25.06,30.44-57.66,48.68-95.66,57.36c-42.84,9.78-85.7,10.02-128.19-2.46
		c-38.2-11.22-70.17-31.84-93.2-64.65C8.66,256.16-0.06,219.36,6.15,179.12c5.3-34.33,18.23-65.35,38.94-93.15
		c1.76-2.36,2.04-3.64-0.57-5.43C22.63,65.49,16.1,43.58,16.99,18.41C17.08,15.79,17.3,13.18,17.51,9.71z M246.28,329.93
		c-11.24,2.71-22.54,5.13-34.07,6.25c-1.8,0.2-3.6,0.55-5.41,0.59c-16.88,0.29-33.61-0.27-50.32-3.77
		c-43.59-9.14-78.17-31.38-103.33-68.31c-4.05-5.95-6.55-12.89-11.73-18.08c-1.52-6.24-5.32-10.79-10.75-14.19
		c4.67,24.98,18.04,44.93,35.85,62.34c8.39,8.42,17.48,15.96,27.78,21.96c26.48,16.85,55.68,25.65,86.73,27.89
		c20.75,1.49,41.39-0.29,61.68-5.76c28.21-7.6,53.86-19.94,75.56-39.67c14.17-12.89,24.86-28.5,33.04-45.75
		c3.05-6.43,5.13-13.32,7.54-20.04c0.47-1.31,1.12-3.22-0.59-3.93c-1.33-0.55-2.21,1.17-3.05,2.12c-2.64,3.01-4.45,6.53-6,10.2
		c-2.14,0.54-2.4,2.62-3.22,4.14c-9.15,16.95-19.97,32.64-34.18,45.82c-11.1,10.3-23.21,19.22-36.75,26.03
		c-7.77,3.91-15.79,7.33-23.7,10.98l-0.02-0.01c-0.63-2.08-1.07,0.14-1.62,0.07c-0.33-0.01-0.66-0.02-0.99-0.03
		C247.92,329.16,247.1,329.54,246.28,329.93z M196.24,142.87c-2.15,3.34-1.65,7.31-2.36,11.95c-2.56-5-1.02-10.01-3.57-13.95
		c-0.62-6.01-4.44-10.67-6.7-15.99c-5.84-16.43-17.18-28.3-31.36-37.81c-5.04-4.19-10.6-7.3-17.02-8.99
		c-6.97-1.83-13.84-4.01-21.12-4.19c-1.05-0.03-3.47-0.8-1.85,1.95c1.31,3.19,3.7,5.43,6.5,7.28c9.51,6.29,19.03,12.55,28.54,18.82
		c4.62,4.33,9.25,8.66,13.87,13c7.09,8.62,14.18,17.24,21.26,25.86c3.93,6.06,8.75,11.55,11.32,18.83
		c3.64-6.23,7.03-12.03,10.42-17.83c3.42-4.6,6.85-9.2,10.27-13.81c6.34-6.99,12.67-13.98,19.01-20.97
		c10.77-8.88,22.65-16.1,34.57-23.26c2.73-1.64,5.03-3.81,6.85-6.42c0.73-1.05,1.86-2.42,1.01-3.62c-1.14-1.61-2.18,0.04-3.3,0.56
		c-1.01,0.47-2.24,0.47-3.37,0.68c-3.14-0.31-6.24-0.38-9.35,0.48c-27.8,7.64-46.38,25.77-58.46,51.32
		C200.32,132.32,195.97,136.85,196.24,142.87z M143.29,127.77c-0.41-4.04-2.9-6.96-5.49-9.71c-6.23-6.61-16.7-8.34-25.16-4.35
		c-8.79,4.14-13.19,11.65-12.08,20.59c-3.38,10.79,5.33,22.64,15.04,26.43c10.12,3.95,23.21-2.52,27.72-13.44
		C145.99,140.84,146.93,134.28,143.29,127.77z M285.22,127.72c-3.9-11.7-13.71-17.94-25.67-15.72
		c-12.31,2.28-20.05,14.46-17.16,22.69c-0.95,1.64-1.33,3.42-1.04,5.28c1.6,10.16,7.09,17.52,16.67,21.13
		c8.36,3.15,17.46-0.48,24.16-8.67C287.3,146.18,289.55,132.86,285.22,127.72z M326.39,234.88c-0.35,0.18-0.71,0.36-1.06,0.54
		c-0.95,0.17-1.89,0.35-2.84,0.52c-2.34-1.88-0.75-3.43,0.75-4.33c2.28-1.37,2.95-3.09,3.16-5.67c0.51-6.3,2.53-12.3,4.93-18.1
		c6.39-15.44,13.36-30.65,15.66-47.45c1.39-10.13,5.11-19.93,4.31-30.39c-0.1-1.33-0.14-2.75,1.66-3.13
		c3.14,7.69,6.36,15.36,7.42,23.7c0.16,0.74,0.32,1.48,0.47,2.22c0.17,1.27,0.34,2.55,0.51,3.82c0.12,0.38,0.23,0.76,0.35,1.14
		c0.81,2.21,0.64,4.52,0.67,6.81c0.13,0.41,0.27,0.81,0.4,1.22c0.35,6.71,0.7,13.41,1.04,20.12c-0.66,2.5-1.01,4.98,0.47,8.45
		c1.04-3.24,3.51-5.28,0.51-7.75c3.29-6.29,3.45-13.24,3.27-19.97c-0.81-30.3-12.94-56.19-31.9-79.26
		c-0.95-1.16-1.75-1.51-3.37-0.91c-10.4,3.84-21.15,6.13-32.59,6.57c2,3.59,4.88,5.68,7.07,8.34c12.28,14.9,17.82,31.73,14.13,51
		c-4.69,24.55-24.71,41.62-49.23,42.22c-23.63,0.58-45.53-17.01-51.2-40.9c-1.31-5.52-0.78-11.09-0.94-17.46
		c-11.99,6.79-19.88,16.36-26.23,27.68c-6.21-12.1-14.46-21.8-27.22-27.77c0,2.85-0.01,4.84,0,6.83
		c0.07,22.22-10.64,37.87-30.42,46.74c-19.37,8.69-37.89,5.5-53.96-8.29c-25.7-22.04-20.84-59.69-2.28-79.67
		c2.67-2.87,5.35-5.73,8.3-8.89c-9.66-0.44-19.07-1.59-27.87-5.05c-5.2-2.05-7.91-1.25-11.16,3.48
		c-14.85,21.56-27.13,44.15-30.07,70.66c-0.62,5.62-1.17,11.67,2.83,17.44c0.46-1.54,0.73-2.32,0.91-3.12
		c0.18-0.81,0.33-1.64,0.4-2.46c2.48-28.16,14.2-52.59,30.4-75.2c0.46-0.65,1.19-1.87,1.44-1.79c2.72,0.94,4.57,3.17,6.71,4.95
		c1.63,1.35,0.16,2.7-0.48,3.97c-8.34,16.53-12.61,33.79-10.08,52.47c2.77,20.36,12,36.83,29.02,48.46
		c11.61,7.93,24.74,10.81,38.83,9.28c-0.19,1.92-1.5,2.79-2.51,3.83c-26.09,26.82-69.56,21.44-88.36-10.88
		c-0.76-1.3-0.72-4.27-3.24-3.25c-2.78,1.13-0.86,3.53-0.37,5.21c4.02,14.04,12.24,24.77,25.19,31.82
		c23.27,12.67,47.19,17.38,72.51,6.29c-0.04,4.15-3.12,5.51-6.26,6.8c-11.78,4.84-24.1,2.75-36.13,2.16
		c-9.45-0.46-18.82-2.98-27.34-9.52c0.26,3.23,1.54,4.94,2.6,6.72c2.58,4.3,6.16,7.78,9.34,11.6
		c13.78,16.56,29.95,30.19,49.25,39.71c22.76,11.24,47.17,16.4,72.43,17.27c13.08,0.45,26.19,0.41,39.21-1.87
		c16.14-2.83,31.67-7.53,46.08-15.26c22.12-11.86,40.28-28.47,55.71-48.16c1.6-2.05,5.01-4.19,3.45-6.47
		c-1.3-1.91-4.73,0.46-7.21,0.94c-6.89,1.35-12.95,6.11-20.46,4.95c-1.6-0.25-3.5,0.3-3.73-2.18c3.4-0.62,6.83-1.09,10.19-1.9
		c16.72-4,32.28-10.33,43.99-23.58c5.9-6.67,9.51-14.44,9.2-23.9C353.61,219.86,341.94,229.86,326.39,234.88z"/>
	<path class="st1" d="M363.82,185.9c-0.35-6.71-0.7-13.41-1.04-20.12c-0.13-0.41-0.27-0.81-0.4-1.22c-0.02-2.29,0.14-4.59-0.67-6.8
		c-0.12-0.38-0.23-0.76-0.35-1.14c-0.17-1.27-0.34-2.55-0.51-3.82c0.21-0.82,0.22-1.6-0.47-2.22c-1.07-8.34-4.29-16.01-7.42-23.7
		c-2.74-5.79-5.27-11.69-8.93-16.99c-1.46-3.62-4.76-5.91-6.67-9.2c-1.09-1.6-2.19-3.2-3.3-4.82c-8.33,7.01-8.33,7.01-4.28,15.96
		c0.06,0.13,0.25,0.21,0.38,0.31c3.28,9.66,5.21,19.6,6.28,29.72c-0.08,5.59-0.16,11.18-0.23,16.77c-0.19,0.72-0.38,1.44-0.58,2.16
		c-0.16,1.55-0.33,3.1-0.49,4.65c-0.16,0.45-0.32,0.9-0.48,1.35c-6.06,23.53-19.54,40.27-43.42,47.53
		c-0.35,0.16-0.69,0.32-1.04,0.47c-0.34-0.16-0.63-0.1-0.89,0.17c-7.8,1.15-15.58,2.98-24.55,0.59
		c8.2,10.27,17.98,16.12,29.54,19.25c1.4,1.18,3.1,1.1,4.77,1.13c0.39,0.17,0.78,0.34,1.18,0.51c7.45,1.13,14.89,2.05,22.26-0.51
		c0.95-0.17,1.89-0.35,2.84-0.52c0.35-0.18,0.71-0.36,1.06-0.54c15.55-5.01,27.22-15.02,36.28-28.58c0.31,9.45-3.3,17.23-9.2,23.9
		c-11.72,13.25-27.27,19.58-43.99,23.58c-3.36,0.8-6.79,1.27-10.19,1.9c-15.2,0.58-30.13-0.05-43.25-10.76
		c-0.02,8.53,2.3,15.28,6.68,22.93c-22.83-5.9-38.33-18.3-47.27-39.24c-4.19,6.49-9.09,11.87-14.02,17.25
		c-2.74,2.99-4.59,3.59-8.06,0.71c-6.97-5.78-13.18-12.17-18.63-19.36c-1.02-1.35-1.83-3.03-3.62-3.81
		c-8.33,25.01-31.88,45.05-50.65,43.13c3.4-6.12,5.15-12.63,5.63-20.3c-1.66,1.22-2.7,1.98-3.74,2.74
		c-25.31,11.09-49.24,6.38-72.51-6.29c-12.95-7.05-21.17-17.78-25.19-31.82c-0.48-1.69-2.4-4.09,0.37-5.21
		c2.52-1.02,2.48,1.95,3.24,3.25c18.8,32.32,62.27,37.71,88.36,10.88c1.01-1.04,2.32-1.9,2.51-3.83
		c-14.09,1.53-27.21-1.35-38.83-9.28c-17.02-11.63-26.26-28.1-29.02-48.46c-2.54-18.68,1.74-35.93,10.08-52.47
		c0.64-1.27,2.1-2.62,0.48-3.97c-2.14-1.78-3.98-4.02-6.71-4.95c-0.25-0.09-0.98,1.14-1.44,1.79c-16.2,22.61-27.93,47.04-30.4,75.2
		c-0.07,0.83-0.21,1.65-0.4,2.46c-0.18,0.8-0.46,1.59-0.91,3.12c-4-5.77-3.46-11.81-2.83-17.44c2.95-26.51,15.22-49.1,30.07-70.66
		c3.26-4.73,5.97-5.53,11.16-3.48c8.8,3.46,18.21,4.6,27.87,5.05c-2.95,3.16-5.63,6.02-8.3,8.89
		c-18.56,19.98-23.42,57.63,2.28,79.67c16.07,13.79,34.59,16.97,53.96,8.29c19.78-8.87,30.49-24.51,30.42-46.74
		c-0.01-1.99,0-3.98,0-6.83c12.76,5.98,21.01,15.67,27.22,27.77c6.35-11.33,14.24-20.89,26.23-27.68
		c0.16,6.37-0.37,11.94,0.94,17.46c5.67,23.89,27.57,41.48,51.2,40.9c24.52-0.6,44.54-17.67,49.23-42.22
		c3.68-19.27-1.85-36.1-14.13-51c-2.19-2.66-5.07-4.75-7.07-8.34c11.44-0.44,22.2-2.73,32.59-6.57c1.62-0.6,2.42-0.24,3.37,0.91
		c18.96,23.07,31.09,48.96,31.9,79.26c0.18,6.73,0.02,13.68-3.27,19.97C364.48,186.37,364.15,186.14,363.82,185.9z M194.89,229.34
		c0.22-0.42,0.44-0.84,0.67-1.27c6.87-9.16,14.02-18.13,20.52-27.54c6.08-8.8,5.72-10.82-0.64-19.55
		c-13.15-18.05-35.28-17.29-46.47,1.47c-3.42,5.74-3.74,10.82,0.38,16.54c7.49,10.4,15.62,20.27,23.39,30.44
		C193.55,231.4,194.24,230.8,194.89,229.34z M150.21,188.68c-9.04,6.81-19.1,10.95-30.34,11.95c-11.22,1-21.8-1.78-32.14-5.96
		C107.77,207.89,139.05,204.89,150.21,188.68z M239.58,191.36c11.56,12.61,42.14,16.04,54.49,6.4
		C275.06,203.18,256.76,202.23,239.58,191.36z"/>
	<path class="st2" d="M122.34,248.97c1.04-0.76,2.07-1.52,3.74-2.74c-0.48,7.67-2.23,14.17-5.63,20.3
		c18.77,1.92,42.33-18.12,50.65-43.13c1.79,0.77,2.6,2.46,3.62,3.81c5.45,7.19,11.66,13.57,18.63,19.36
		c3.48,2.89,5.32,2.28,8.06-0.71c4.94-5.38,9.83-10.76,14.02-17.25c8.94,20.94,24.44,33.35,47.27,39.24
		c-4.38-7.66-6.7-14.4-6.68-22.93c13.12,10.71,28.05,11.34,43.25,10.76c0.23,2.48,2.13,1.94,3.73,2.18
		c7.52,1.16,13.57-3.6,20.46-4.95c2.48-0.49,5.91-2.85,7.21-0.94c1.56,2.29-1.84,4.43-3.45,6.47c-15.43,19.7-33.59,36.3-55.71,48.16
		c-14.41,7.73-29.95,12.43-46.08,15.26c-13.02,2.28-26.13,2.32-39.21,1.87c-25.26-0.87-49.67-6.03-72.43-17.27
		c-19.3-9.53-35.47-23.16-49.25-39.71c-3.18-3.82-6.77-7.3-9.34-11.6c-1.07-1.78-2.35-3.5-2.6-6.72c8.52,6.54,17.89,9.06,27.34,9.52
		c12.03,0.58,24.35,2.68,36.13-2.16C119.22,254.48,122.3,253.12,122.34,248.97z"/>
	<path class="st2" d="M291.22,214.33c23.87-7.25,37.36-24,43.42-47.53c0.16-0.45,0.32-0.9,0.48-1.35c0.16-1.55,0.33-3.1,0.49-4.65
		c0.67-0.59,0.71-1.36,0.58-2.16c0.08-5.59,0.16-11.18,0.23-16.77c2.76-0.71,3.4-3.28,3.67-5.34c1.04-8.01,2.93-15.96,2.26-24.13
		c-0.11-1.31,0.2-2.28,1.67-2.52c3.66,5.3,6.19,11.21,8.93,16.99c-1.8,0.38-1.76,1.8-1.66,3.13c0.81,10.45-2.92,20.25-4.31,30.39
		c-2.3,16.8-9.27,32.01-15.66,47.45c-2.4,5.8-4.41,11.8-4.93,18.1c-0.21,2.58-0.88,4.3-3.16,5.67c-1.51,0.9-3.09,2.45-0.75,4.33
		c-7.37,2.56-14.81,1.64-22.26,0.51c-0.39-0.17-0.78-0.34-1.18-0.51c-1.67-0.03-3.37,0.05-4.77-1.13c0.3-0.74,0.4-1.87,0.94-2.15
		c3.08-1.6,4.1-4.64,5.29-7.45c2.49-5.86,0.83-8.19-5.35-8.44c-1.99-0.08-4.78,1.53-5.88-1.8c0.26-0.27,0.56-0.32,0.89-0.17
		C290.53,214.64,290.88,214.49,291.22,214.33z"/>
	<path class="st3" d="M349.21,241.77c1.54-3.67,3.35-7.19,6-10.2c0.84-0.95,1.72-2.67,3.05-2.12c1.71,0.7,1.06,2.61,0.59,3.93
		c-2.41,6.72-4.49,13.61-7.54,20.04c-8.18,17.25-18.87,32.86-33.04,45.75c-21.7,19.74-47.35,32.08-75.56,39.67
		c-20.29,5.46-40.93,7.25-61.68,5.76c-31.05-2.23-60.25-11.04-86.73-27.89c0.73-3.35-3.87-4.76-2.99-8.17
		c13.21,8.18,26.39,16.31,41.51,20.76c14.5,4.27,29.11,7.75,44.26,8.55c11.74,1.5,23.48,1.7,35.22-0.03l0.03,0
		c4.01,0.62,7.91-0.41,11.77-1.07c8.49-1.45,17.18-2.24,25.05-6.2c0.32-0.7,0.23-1.3-0.42-1.78c0.33,0.01,0.66,0.02,0.99,0.02
		c0.57,0.65,1.11,0.63,1.62-0.07c0,0,0.02,0.01,0.02,0.01c-0.62,0.32-1.1,1.28-0.49,1.31c1.41,0.08,2.89-0.32,4.26-0.78
		c37.85-12.69,66.76-36.42,86.91-70.79C345.1,253.27,348.59,248.1,349.21,241.77z"/>
	<path class="st4" d="M177.09,337.86c-15.15-0.8-29.75-4.28-44.26-8.55c-15.12-4.45-28.31-12.58-41.51-20.76
		c-7.54-6.05-15.02-12.18-21.86-19.02c-0.28-0.26-0.56-0.52-0.84-0.78c-0.39-0.37-0.78-0.75-1.18-1.12l0.12,0.12
		c-0.37-0.41-0.74-0.83-1.11-1.24c-9.19-11.22-17.94-22.74-24.29-35.89c-0.61-1.27-2.13-2.38-0.73-4.01
		c5.18,5.19,7.68,12.13,11.73,18.08c25.15,36.93,59.73,59.17,103.33,68.31c16.7,3.5,33.43,4.06,50.32,3.77
		c1.8-0.03,3.6-0.38,5.41-0.59c0.04,0.55,0.09,1.09,0.13,1.64c0,0-0.03,0-0.03,0C200.57,337.83,188.83,337.84,177.09,337.86z"/>
	<path class="st1" d="M242.39,134.68c-2.89-8.24,4.84-20.41,17.16-22.69c11.97-2.21,21.78,4.02,25.67,15.72
		c-1.54,1.19-3.24,2.22-4.23,3.99c-1.27-0.19-1.99-1.11-2.65-2.07c-8.18-11.78-27.42-10.47-30.98,6.46
		C245.46,136.5,244.04,135.18,242.39,134.68z"/>
	<path class="st5" d="M269.24,74.96c1.13-0.21,2.35-0.21,3.37-0.68c1.12-0.52,2.17-2.17,3.3-0.56c0.85,1.2-0.28,2.57-1.01,3.62
		c-1.82,2.61-4.12,4.78-6.85,6.42c-11.92,7.17-23.8,14.39-34.57,23.26c-0.97-4.52-3.53-5.95-7.89-4.2c-0.71,0.28-1.65,0-2.48-0.03
		c11.28-11.72,24.68-20.03,40.17-25.05C265.33,77.08,268.06,77.6,269.24,74.96z"/>
	<path class="st1" d="M100.56,134.31c-1.11-8.94,3.29-16.45,12.08-20.59c8.47-3.99,18.93-2.26,25.16,4.35
		c2.59,2.75,5.08,5.68,5.49,9.71c-1.46,1.27-2.91,2.55-4.37,3.82c-1.39-1.39-2.83-2.73-4.16-4.18c-3.58-3.88-7.99-5.79-13.25-5.63
		c-9.3,0.29-13.69,6.19-16.15,14.26C103.51,136.13,102.14,134.93,100.56,134.31z"/>
	<path class="st6" d="M41.43,246.6c-1.4,1.63,0.12,2.74,0.73,4.01c6.35,13.14,15.1,24.66,24.29,35.89c0.37,0.41,0.74,0.83,1.11,1.24
		c0,0-0.12-0.12-0.12-0.12c0.39,0.37,0.78,0.75,1.18,1.12c0.28,0.26,0.56,0.52,0.84,0.78c-0.29,2.13,0.55,4.89-2.93,5.23
		c-17.8-17.41-31.18-37.36-35.85-62.34C36.11,235.82,39.9,240.36,41.43,246.6z"/>
	<path class="st4" d="M349.21,241.77c-0.62,6.32-4.11,11.49-7.16,16.71c-20.15,34.37-49.07,58.1-86.91,70.79
		c-1.37,0.46-2.86,0.86-4.26,0.78c-0.61-0.03-0.13-1,0.49-1.31c7.91-3.64,15.93-7.07,23.7-10.98c13.54-6.81,25.65-15.72,36.75-26.03
		c14.21-13.18,25.02-28.87,34.18-45.82C346.81,244.39,347.07,242.31,349.21,241.77z"/>
	<path class="st7" d="M280.99,131.71c0.99-1.77,2.68-2.8,4.23-3.99c4.33,5.14,2.08,18.47-3.03,24.71c-6.7,8.2-15.8,11.83-24.16,8.67
		c-9.58-3.61-15.07-10.98-16.67-21.13c-0.29-1.86,0.08-3.64,1.04-5.28c1.65,0.49,3.06,1.81,4.97,1.42
		c-1.21,11.37,8.32,21.11,19.92,19.86C277.75,154.85,285.73,141.29,280.99,131.71z"/>
	<path class="st7" d="M138.92,131.59c1.46-1.27,2.91-2.55,4.37-3.82c3.64,6.5,2.7,13.06,0.03,19.53
		c-4.52,10.93-17.6,17.39-27.72,13.44c-9.71-3.79-18.42-15.64-15.04-26.43c1.58,0.63,2.96,1.83,4.8,1.73
		c0.22,10.06,4.11,15.94,12.68,19.13c6.74,2.51,12.98,0.46,18.84-6.39C140.31,144.77,142.98,137.57,138.92,131.59z"/>
	<path class="st5" d="M147.31,101.95c-9.52-6.27-19.04-12.54-28.54-18.82c-2.8-1.85-5.19-4.09-6.5-7.28
		c6.01,0.1,11.59,2.05,17.25,3.77c7.7,2.35,13.93,7.37,20.81,11.2c1.1,1.1,2.2,2.19,3.3,3.29
		C154.14,98.84,148.39,98.51,147.31,101.95z"/>
	<path class="st8" d="M269.24,74.96c-1.18,2.64-3.91,2.12-5.97,2.78c-15.48,5.02-28.88,13.33-40.17,25.05
		c-6.17,5.24-10.96,11.59-14.97,18.58c-1.99,1.15-3.15,3.12-4.23,4.95c-0.91,1.54-1.55,0.92-2.47,0.43
		c12.08-25.55,30.65-43.67,58.46-51.32C262.99,74.58,266.1,74.65,269.24,74.96z"/>
	<path class="st9" d="M183.61,124.88c2.27,5.32,6.09,9.98,6.7,15.99c-2.61-1.3-5.24-0.31-7.87-0.06
		c-7.09-8.62-14.18-17.24-21.27-25.86c4.48-2.18,9.06,0.95,13.56-0.27C178.35,117.51,179.18,122.76,183.61,124.88z"/>
	<path class="st6" d="M208.14,121.37c4-6.99,8.8-13.34,14.97-18.58c0.83,0.02,1.77,0.31,2.48,0.03c4.36-1.75,6.92-0.32,7.89,4.2
		c-6.34,6.99-12.67,13.98-19.01,20.97C212.36,125.79,210.25,123.58,208.14,121.37z"/>
	<path class="st6" d="M174.74,114.67c-4.5,1.22-9.08-1.9-13.56,0.27c-4.62-4.33-9.25-8.66-13.87-13c1.08-3.44,6.83-3.11,6.32-7.83
		C161.62,99.98,168.73,106.76,174.74,114.67z"/>
	<path class="st10" d="M174.74,114.67c-6.01-7.91-13.12-14.68-21.12-20.55c-1.1-1.1-2.2-2.2-3.3-3.29c2.6-0.25,1.85-2.21,1.93-3.75
		c14.18,9.51,25.52,21.38,31.36,37.81C179.18,122.76,178.35,117.51,174.74,114.67z"/>
	<path class="st9" d="M208.14,121.37c2.11,2.21,4.22,4.42,6.33,6.62c-3.42,4.6-6.85,9.2-10.27,13.81c-2.72-0.16-5.36,0.3-7.95,1.07
		c-0.27-6.02,4.07-10.55,5.19-16.12c0.93,0.49,1.56,1.11,2.47-0.43C204.99,124.49,206.14,122.52,208.14,121.37z"/>
	<path class="st9" d="M66.52,294.75c3.49-0.33,2.64-3.1,2.93-5.23c6.85,6.85,14.32,12.97,21.86,19.02
		c-0.89,3.41,3.71,4.82,2.99,8.17C84,310.71,74.91,303.17,66.52,294.75z"/>
	<path class="st8" d="M152.25,87.07c-0.07,1.54,0.67,3.5-1.93,3.75c-6.88-3.83-13.11-8.86-20.81-11.2
		c-5.66-1.72-11.25-3.67-17.25-3.77c-1.62-2.75,0.8-1.97,1.85-1.95c7.27,0.18,14.15,2.35,21.12,4.19
		C141.65,79.77,147.21,82.89,152.25,87.07z"/>
	<path class="st3" d="M196.24,142.87c2.6-0.77,5.23-1.23,7.95-1.07c-3.39,5.8-6.78,11.6-10.43,17.83
		c-2.57-7.28-7.4-12.78-11.32-18.83c2.63-0.25,5.26-1.23,7.87,0.06c2.55,3.94,1.01,8.95,3.57,13.95
		C194.59,150.18,194.09,146.21,196.24,142.87z"/>
	<path class="st11" d="M212.34,337.82c-0.04-0.55-0.09-1.09-0.13-1.64c11.53-1.13,22.83-3.54,34.07-6.25
		c0.78,1.06,1.84,0.82,2.89,0.62c-7.88,3.97-16.57,4.76-25.05,6.2C220.25,337.41,216.35,338.44,212.34,337.82z"/>
	<path class="st2" d="M363.82,185.9c0.33,0.23,0.65,0.47,0.98,0.7c3,2.47,0.52,4.5-0.51,7.75
		C362.81,190.88,363.16,188.4,363.82,185.9z"/>
	<path class="st4" d="M249.16,330.55c-1.05,0.2-2.11,0.44-2.89-0.62c0.82-0.39,1.64-0.77,2.47-1.16
		C249.4,329.24,249.49,329.85,249.16,330.55z"/>
	<path class="st2" d="M360.37,150.58c0.69,0.63,0.69,1.4,0.47,2.22C360.69,152.06,360.53,151.32,360.37,150.58z"/>
	<path class="st2" d="M361.36,156.62c0.12,0.38,0.23,0.76,0.35,1.14C361.59,157.38,361.47,157,361.36,156.62z"/>
	<path class="st2" d="M326.39,234.88c-0.35,0.18-0.71,0.36-1.06,0.54C325.68,235.24,326.04,235.06,326.39,234.88z"/>
	<path class="st4" d="M251.35,328.73c-0.51,0.7-1.05,0.72-1.62,0.07C250.27,328.87,250.72,326.65,251.35,328.73z"/>
	<path class="st2" d="M362.38,164.56c0.13,0.41,0.27,0.81,0.4,1.22C362.64,165.38,362.51,164.97,362.38,164.56z"/>
	<path class="st7" d="M192.74,229.43c-7.77-10.17-15.9-20.04-23.39-30.44c-4.12-5.72-3.8-10.8-0.38-16.54
		c11.2-18.76,33.33-19.51,46.47-1.47c6.36,8.73,6.72,10.75,0.64,19.55c-6.51,9.41-13.65,18.38-20.52,27.54
		c-0.16-0.14-0.32-0.29-0.48-0.42c0.22-2.46-0.07-5.11,0.73-7.37c4.06-11.59,9.2-22.71,16.36-32.73c2.63-3.68,2.12-5.9-1.71-7.77
		c-2.27-3.18-5.46-4.93-9.13-5.95c-3.1-2.01-6.51-2.18-10.04-1.76c-0.66,0.07-1.33,0.13-2,0.2c-0.47,0.18-0.95,0.36-1.42,0.53
		c-4.42,0.52-8.19,2.45-11.52,5.33c-1.3,1.01-2.62,2.01-3.9,3.04c-1.09,0.87-1.35,1.73-0.15,2.84c7.2,6.7,11.2,15.49,15.68,23.97
		c1.35,4.38,2.7,8.76,4.05,13.13c0.5,2.51,0.99,5.01,1.49,7.52C193.26,228.89,193,229.16,192.74,229.43z"/>
	<path class="st7" d="M289.29,214.97c1.1,3.33,3.88,1.72,5.88,1.8c6.18,0.25,7.84,2.58,5.35,8.44c-1.2,2.82-2.21,5.85-5.29,7.45
		c-0.54,0.28-0.64,1.41-0.94,2.15c-11.56-3.13-21.34-8.98-29.54-19.25C273.71,217.94,281.49,216.12,289.29,214.97z"/>
	<path class="st7" d="M344.02,109.89c-1.47,0.23-1.78,1.2-1.67,2.52c0.66,8.17-1.22,16.12-2.26,24.13
		c-0.27,2.06-0.91,4.63-3.67,5.34c-1.07-10.12-3-20.07-6.28-29.72c4.26-2.65,5.19-7.4,7.2-11.45
		C339.26,103.98,342.55,106.27,344.02,109.89z"/>
	<path class="st12" d="M150.21,188.68c-11.16,16.21-42.44,19.21-62.48,5.99c10.33,4.17,20.92,6.96,32.14,5.96
		C131.11,199.64,141.17,195.49,150.21,188.68z"/>
	<path class="st12" d="M239.58,191.36c17.18,10.88,35.48,11.83,54.49,6.4C281.71,207.4,251.13,203.97,239.58,191.36z"/>
	<path class="st12" d="M337.34,100.69c-2.02,4.06-2.95,8.8-7.2,11.45c-0.13-0.1-0.32-0.18-0.38-0.31
		c-4.05-8.95-4.05-8.95,4.28-15.96C335.15,97.49,336.25,99.09,337.34,100.69z"/>
	<path class="st7" d="M336.18,158.64c0.13,0.81,0.09,1.57-0.58,2.16C335.8,160.08,335.99,159.36,336.18,158.64z"/>
	<path class="st7" d="M194.9,229.34c-0.65,1.47-1.35,2.07-2.15,0.09c0.26-0.27,0.52-0.54,0.78-0.81c0,0,0.32,0,0.32,0l0.32,0.03
		C194.39,228.9,194.63,229.13,194.9,229.34z"/>
	<path class="st7" d="M291.22,214.33c-0.35,0.16-0.69,0.32-1.04,0.47C290.53,214.64,290.88,214.49,291.22,214.33z"/>
	<path class="st7" d="M195.56,228.07c-0.22,0.42-0.44,0.84-0.67,1.27c-0.26-0.21-0.5-0.44-0.72-0.68c0.3-0.34,0.61-0.67,0.91-1.01
		C195.24,227.78,195.4,227.92,195.56,228.07z"/>
	<path class="st7" d="M299.05,235.93c0.39,0.17,0.78,0.34,1.18,0.51C299.84,236.28,299.44,236.1,299.05,235.93z"/>
	<path class="st7" d="M335.12,165.45c-0.16,0.45-0.32,0.9-0.48,1.35C334.8,166.35,334.96,165.9,335.12,165.45z"/>
	<path class="st11" d="M177.09,337.86c11.74-0.01,23.48-0.02,35.22-0.03C200.57,339.56,188.83,339.36,177.09,337.86z"/>
	<path class="st9" d="M68.61,288.74c-0.39-0.37-0.78-0.75-1.18-1.12C67.83,287.99,68.22,288.37,68.61,288.74z"/>
	<path class="st9" d="M67.56,287.74c-0.37-0.41-0.74-0.83-1.11-1.24C66.82,286.91,67.19,287.33,67.56,287.74z"/>
	<path class="st0" d="M280.99,131.71c4.74,9.58-3.25,23.14-13.71,24.26c-11.6,1.25-21.13-8.49-19.92-19.86
		c3.56-16.94,22.8-18.24,30.98-6.46C279.01,130.6,279.72,131.52,280.99,131.71z"/>
	<path class="st0" d="M138.92,131.59c4.06,5.98,1.39,13.18-2.04,17.19c-5.86,6.85-12.1,8.91-18.84,6.39
		c-8.57-3.19-12.47-9.07-12.68-19.13c2.45-8.07,6.85-13.96,16.15-14.26c5.26-0.16,9.67,1.74,13.25,5.63
		C136.09,128.86,137.53,130.2,138.92,131.59z"/>
	<path class="st13" d="M187.98,207.97c-4.48-8.48-8.48-17.28-15.68-23.97c-1.2-1.11-0.94-1.97,0.15-2.84
		c1.29-1.03,2.6-2.03,3.9-3.04c0.15,1.74,1.11,2.64,2.85,2.73c0.21,0.18,0.34,0.41,0.39,0.68c-0.51,3.58,2.89,4.01,4.68,5.67
		c2.63,2.44,5.92,2.59,8.5,0.4c2.86-2.42,3.58-5.81,1.43-9.33c-1.2-1.96-2.47-3.9-2.91-6.22c3.52-0.42,6.94-0.25,10.04,1.76
		c1.16,3.72,2.78,7.3,3.2,11.23c-4.19,6.42-8.41,12.82-9.39,20.69C192.75,206.49,190.37,207.23,187.98,207.97z"/>
	<path class="st14" d="M195.14,205.74c0.98-7.87,5.2-14.27,9.39-20.69c1.98-1.76,3.96-3.52,5.94-5.28c3.83,1.88,4.34,4.1,1.71,7.77
		c-7.16,10.02-12.3,21.14-16.36,32.73c-0.79,2.27-0.51,4.91-0.73,7.37c-0.31,0.33-0.61,0.67-0.92,1c0,0-0.32-0.03-0.32-0.03
		s-0.32,0-0.32,0c-0.5-2.51-0.99-5.01-1.49-7.52C196.02,216.58,193.54,210.75,195.14,205.74z"/>
	<path class="st8" d="M179.2,180.85c-1.73-0.09-2.69-0.99-2.85-2.73c3.33-2.88,7.1-4.81,11.53-5.33c0.47-0.18,0.95-0.36,1.42-0.53
		c0.67-0.07,1.33-0.13,2-0.2c0.45,2.32,1.71,4.25,2.91,6.22c2.14,3.51,1.43,6.91-1.43,9.33c-2.58,2.19-5.87,2.04-8.5-0.4
		c-1.79-1.66-5.19-2.09-4.68-5.67c0.61,0.24,1.23,0.46,1.85,0.71c3.53,1.41,5.55-0.99,7.65-3.07c0.8-0.79,1-1.93-0.09-2.53
		c-2.73-1.49-5.05,0.03-7.39,1.28C180.37,178.57,179.46,179.43,179.2,180.85z"/>
	<path class="st10" d="M195.14,205.74c-1.6,5.01,0.88,10.84-3.11,15.36c-1.35-4.38-2.7-8.76-4.05-13.13
		C190.37,207.23,192.75,206.49,195.14,205.74z"/>
	<path class="st10" d="M210.47,179.77c-1.98,1.76-3.96,3.52-5.94,5.28c-0.41-3.93-2.04-7.51-3.2-11.23
		C205,174.84,208.2,176.59,210.47,179.77z"/>
	<path class="st13" d="M189.3,172.26c-0.47,0.18-0.94,0.36-1.42,0.53C188.35,172.61,188.83,172.44,189.3,172.26z"/>
	<path class="st4" d="M179.2,180.85c0.26-1.42,1.17-2.28,2.41-2.94c2.34-1.25,4.66-2.77,7.39-1.28c1.09,0.6,0.89,1.74,0.09,2.53
		c-2.1,2.09-4.13,4.48-7.65,3.07c-0.61-0.24-1.23-0.47-1.85-0.71C179.54,181.26,179.41,181.03,179.2,180.85z"/>
</g>
</svg>
